<?xml version="1.0" encoding="utf-8"?>
<svg viewBox="27.295 -8.685 717.121 183.623" xmlns="http://www.w3.org/2000/svg">
  <path d="M 93.215 67.275 L 99.549 75.261 L 103.198 79.668 Q 113.801 92.749 113.801 107.344 Q 113.801 121.527 104.437 132.198 Q 91.632 146.863 70.908 146.863 Q 54.867 146.863 44.609 136.983 Q 34.35 127.104 34.35 111.682 Q 34.35 92.818 50.323 80.218 Q 58.791 73.54 65.951 73.54 Q 69.669 73.54 72.01 75.674 Q 74.351 77.809 74.351 81.182 Q 74.351 85.726 68.981 89.031 L 63.473 92.404 Q 58.722 95.365 55.555 100.666 Q 52.388 105.967 52.388 111.131 Q 52.388 119.324 57.931 124.66 Q 63.473 129.995 72.01 129.995 Q 81.442 129.995 88.396 122.938 Q 95.349 115.881 95.349 106.312 Q 95.349 100.253 92.527 95.296 Q 89.704 90.339 80.341 79.943 Q 73.8 72.714 70.977 67.275 L 52.388 67.275 Q 42.887 67.275 42.887 60.735 Q 42.887 55.984 46.227 53.402 Q 49.566 50.82 55.624 50.82 L 67.397 50.82 Q 68.774 37.189 79.859 28.273 Q 90.943 19.357 106.434 19.357 Q 118.069 19.357 125.401 25.76 Q 132.734 32.163 132.734 42.352 Q 132.734 55.915 121.098 63.144 Q 114.489 67.275 100.1 67.275 Z M 84.953 50.82 L 101.477 50.82 Q 115.453 50.82 115.453 42.696 Q 115.453 39.529 112.596 37.602 Q 109.739 35.674 104.988 35.674 Q 97.552 35.674 91.459 40.287 Q 85.366 44.9 84.953 50.82 Z M 145.398 99.289 L 152.627 99.289 Q 161.371 99.289 161.371 105.417 Q 161.371 109.616 158.307 111.957 Q 155.243 114.298 149.735 114.298 L 137.343 114.298 Q 132.248 114.298 129.287 111.888 Q 126.327 109.479 126.327 105.417 Q 126.327 103.282 128.324 98.325 L 156.138 29.891 L 156.895 28.032 Q 160.062 20.321 167.016 20.321 Q 169.908 20.321 171.939 22.249 Q 173.97 24.176 173.97 26.861 Q 173.97 28.927 172.937 31.543 L 172.18 33.402 Z M 180.923 94.126 Q 180.923 99.289 188.703 99.289 L 209.15 99.289 Q 217.825 99.289 217.825 105.417 Q 217.825 109.616 214.762 111.957 Q 211.698 114.298 206.19 114.298 L 186.706 114.298 Q 175.828 114.298 170.148 108.928 Q 164.468 103.558 164.468 93.231 Q 164.468 79.943 173.453 70.304 Q 182.438 60.666 194.83 60.666 Q 203.849 60.666 209.323 65.382 Q 214.796 70.098 214.796 77.809 Q 214.796 87.103 207.223 91.578 Q 203.023 94.126 194.692 94.126 Z M 184.228 81.595 L 191.801 81.595 Q 199.168 81.595 198.961 78.36 Q 198.755 74.711 194.211 74.711 Q 187.877 74.711 184.228 81.595 Z M 236.955 94.126 Q 236.955 99.289 244.735 99.289 L 265.182 99.289 Q 273.857 99.289 273.857 105.417 Q 273.857 109.616 270.793 111.957 Q 267.73 114.298 262.222 114.298 L 242.738 114.298 Q 231.86 114.298 226.18 108.928 Q 220.5 103.558 220.5 93.231 Q 220.5 79.943 229.485 70.304 Q 238.469 60.666 250.862 60.666 Q 259.881 60.666 265.355 65.382 Q 270.828 70.098 270.828 77.809 Q 270.828 87.103 263.255 91.578 Q 259.055 94.126 250.724 94.126 Z M 240.26 81.595 L 247.833 81.595 Q 255.199 81.595 254.993 78.36 Q 254.786 74.711 250.242 74.711 Q 243.908 74.711 240.26 81.595 Z M 291.416 108.928 L 273.446 153.128 Q 269.729 162.285 262.568 162.285 Q 259.814 162.285 257.852 160.46 Q 255.89 158.636 255.89 156.089 Q 255.89 153.954 257.611 149.617 L 290.796 67.826 Q 293.343 61.63 299.608 61.63 Q 303.946 61.63 306.493 65.76 Q 311.313 60.666 318.266 60.666 Q 325.495 60.666 329.936 66.139 Q 334.376 71.612 334.376 80.563 Q 334.376 97.499 323.843 108.171 Q 320.4 111.682 316.751 112.99 Q 313.103 114.298 306.562 114.298 Q 299.54 114.298 296.889 113.334 Q 294.238 112.37 291.416 108.928 Z M 297.061 94.883 Q 298.782 97.912 300.331 98.807 Q 301.88 99.702 305.254 99.702 Q 310.142 99.702 312.896 96.053 Q 318.473 88.687 318.473 80.907 Q 318.473 74.229 312.139 74.229 Q 305.185 74.229 302.156 82.284 Q 301.812 83.179 301.605 83.798 Z M 344.699 79.048 L 355.99 79.048 L 357.298 79.048 Q 363.839 79.048 363.839 84.9 Q 363.839 90.821 357.298 90.821 L 355.99 90.821 L 344.699 90.821 L 343.391 90.821 Q 340.5 90.821 338.675 89.203 Q 336.851 87.585 336.851 84.9 Q 336.851 82.284 338.641 80.666 Q 340.431 79.048 343.391 79.048 Z M 486.803 97.843 L 497.956 97.843 Q 507.526 97.843 507.526 104.384 Q 507.526 109.066 504.187 111.682 Q 500.848 114.298 494.789 114.298 L 481.708 114.298 Q 474.548 114.298 470.658 111.303 Q 466.768 108.308 466.768 102.732 Q 466.768 99.152 469.66 92.267 L 487.354 50.82 L 474.066 65.072 Q 469.316 70.235 465.047 70.235 Q 459.471 70.235 457.818 62.593 L 455.891 54.056 L 439.092 95.503 Q 430.417 116.845 425.873 124.522 Q 421.329 132.198 414.1 137.844 Q 403.635 145.968 390.072 145.968 Q 375.614 145.968 366.595 136.846 Q 357.576 127.723 357.576 113.059 Q 357.576 93.85 371.759 79.255 Q 379.401 71.475 390.83 66.69 Q 402.258 61.905 413.343 61.905 Q 418.988 61.905 422.362 64.315 Q 425.735 66.724 425.735 70.717 Q 425.735 74.917 422.155 77.533 Q 420.09 79.048 414.169 79.599 Q 400.468 80.838 392.069 85.864 Q 385.115 90.064 381.019 96.811 Q 376.922 103.558 376.922 110.924 Q 376.922 118.773 380.915 123.283 Q 384.909 127.792 391.862 127.792 Q 400.193 127.792 406.355 120.666 Q 412.517 113.541 419.883 95.503 L 447.216 28.238 Q 450.796 19.357 456.854 19.357 Q 460.71 19.357 462.947 21.836 Q 465.185 24.314 466.837 30.51 L 471.037 46.345 L 491.691 26.035 Q 498.507 19.357 504.428 19.357 Q 508.559 19.357 511.416 21.87 Q 514.273 24.383 514.273 27.963 Q 514.273 30.235 513.172 32.92 L 511.588 36.776 Z M 531.617 94.126 Q 531.617 99.289 539.396 99.289 L 559.844 99.289 Q 568.519 99.289 568.519 105.417 Q 568.519 109.616 565.455 111.957 Q 562.391 114.298 556.884 114.298 L 537.4 114.298 Q 526.522 114.298 520.842 108.928 Q 515.162 103.558 515.162 93.231 Q 515.162 79.943 524.147 70.304 Q 533.131 60.666 545.524 60.666 Q 554.543 60.666 560.016 65.382 Q 565.49 70.098 565.49 77.809 Q 565.49 87.103 557.916 91.578 Q 553.717 94.126 545.386 94.126 Z M 534.921 81.595 L 542.495 81.595 Q 549.861 81.595 549.655 78.36 Q 549.448 74.711 544.904 74.711 Q 538.57 74.711 534.921 81.595 Z M 618.436 99.289 L 626.284 99.289 Q 635.028 99.289 635.028 105.417 Q 635.028 109.616 631.93 111.957 Q 628.832 114.298 623.393 114.298 L 614.098 114.298 Q 608.728 114.298 606.25 109.892 Q 601.843 114.298 596.818 114.298 L 588.074 114.298 Q 580.432 114.298 575.853 109.066 Q 571.275 103.833 571.275 95.158 Q 571.275 81.871 580.328 71.268 Q 589.382 60.666 600.673 60.666 Q 609.004 60.666 613.961 66.655 L 629.314 28.996 Q 633.238 19.357 640.26 19.357 Q 643.221 19.357 645.286 21.25 Q 647.352 23.144 647.352 25.898 Q 647.352 28.032 646.319 30.717 L 645.493 32.576 Z M 593.237 99.633 L 595.854 99.633 Q 600.604 99.633 602.119 95.847 L 607.282 83.11 Q 608.246 80.769 608.246 79.53 Q 608.246 77.465 606.491 76.019 Q 604.735 74.573 602.119 74.573 Q 596.749 74.573 592.101 80.563 Q 587.454 86.552 587.454 93.506 Q 587.454 99.633 593.237 99.633 Z M 656.918 99.289 L 664.698 99.289 Q 673.373 99.289 673.373 105.417 Q 673.373 109.616 670.309 111.957 Q 667.246 114.298 661.738 114.298 L 650.791 114.298 Q 644.732 114.298 641.256 111.819 Q 637.779 109.341 637.779 105.072 Q 637.779 102.8 639.225 99.289 L 650.584 71.337 L 651.342 69.409 Q 654.509 61.63 661.531 61.63 Q 664.423 61.63 666.523 63.557 Q 668.623 65.485 668.623 68.17 Q 668.623 70.373 666.764 74.917 Z M 666.006 39.667 Q 670 39.667 672.788 42.455 Q 675.576 45.244 675.576 49.237 Q 675.576 53.23 672.788 56.018 Q 670 58.807 666.006 58.807 Q 662.013 58.807 659.225 56.018 Q 656.437 53.23 656.437 49.237 Q 656.437 45.244 659.225 42.455 Q 662.013 39.667 666.006 39.667 Z M 715.443 114.298 L 695.477 114.298 Q 686.871 114.298 681.466 108.239 Q 676.062 102.181 676.062 92.542 Q 676.062 79.668 684.943 70.167 Q 693.825 60.666 705.804 60.666 Q 713.928 60.666 719.023 65.21 Q 724.117 69.754 724.117 77.051 Q 724.117 82.146 721.57 85.416 Q 719.023 88.687 715.03 88.687 Q 708.696 88.687 708.696 82.766 Q 708.696 81.871 708.696 81.251 Q 708.764 80.494 708.764 79.805 Q 708.764 74.986 704.014 74.986 Q 699.539 74.986 695.856 79.736 Q 692.172 84.487 692.172 90.339 Q 692.172 95.227 695.167 97.258 Q 698.162 99.289 705.322 99.289 L 718.334 99.289 Q 727.078 99.289 727.078 105.417 Q 727.078 109.548 723.945 111.923 Q 720.813 114.298 715.443 114.298 Z" transform="matrix(1.018588, 0, 0, 1.017422, -0.490042, 0.159427)" style="fill: rgb(255, 255, 255); white-space: pre;"/>
</svg>